<?xml version="1.0" encoding="utf-8"?>
<!-- Generator: Adobe Illustrator 15.1.0, SVG Export Plug-In . SVG Version: 6.00 Build 0)  -->
<!DOCTYPE svg PUBLIC "-//W3C//DTD SVG 1.1//EN" "http://www.w3.org/Graphics/SVG/1.1/DTD/svg11.dtd">
<svg version="1.1" id="Ebene_1" xmlns="http://www.w3.org/2000/svg" xmlns:xlink="http://www.w3.org/1999/xlink" x="0px" y="0px"
	 width="2184px" height="1040px" viewBox="0 0 2184 1040" enable-background="new 0 0 2184 1040" xml:space="preserve">
<g>
	<path fill="#3265AD" d="M148.43,643.829c-1.365,0.053-2.711,0.077-4.102,0.077h-34.17c-1.232,0-2.504-0.024-3.691-0.077
		c-8.587-0.383-16.702-1.945-24.393-4.771c-0.334-0.137-0.729-0.264-1.053-0.389c-9.191-3.508-17.313-8.398-24.284-14.68
		c-7.021-6.281-12.524-13.825-16.46-22.577c-3.928-8.758-5.907-18.413-5.907-28.894l-0.435-145.861c0-0.409,0-0.798,0.045-1.181
		c0.3-2.632,1.439-4.87,3.555-6.76c1.818-1.149,3.969-2.208,6.463-3.225c0.73-0.167,1.445-0.2,2.207-0.2h25.416
		c1.599,0,3.13,0.283,4.529,0.838c1.441,0.511,2.744,1.36,4.02,2.446c2.449,2.214,3.724,4.854,3.724,8.081l-0.472,145.861
		c0,2.039,0.172,4.031,0.509,5.887c0.121,0.711,0.295,1.399,0.466,2.069c1.226,4.788,3.595,8.974,7.145,12.661
		c4.867,4.941,10.326,7.689,16.451,8.147c0.727,0.087,1.439,0.129,2.166,0.129h34.17c0.883,0,1.729-0.042,2.566-0.129"/>
	<path fill="#3265AD" d="M91.781,355.761c0,3.23-1.161,5.922-3.497,8.111c-2.336,2.184-5.119,3.293-8.318,3.293H37.479
		c-3.217,0-6.061-1.109-8.548-3.293c-2.472-2.189-3.72-4.881-3.72-8.111v-20.579c0-3.206,1.248-5.904,3.72-8.097
		c2.487-2.188,5.331-3.293,8.548-3.293h42.487c3.199,0,5.982,1.105,8.318,3.293c2.336,2.192,3.497,4.891,3.497,8.097V355.761z
		 M33.969,426.736c0-3.204,1.167-5.911,3.51-8.104c2.338-2.189,4.602-3.284,7.806-3.284l26.36-0.006c3.197,0,5.977,1.101,8.321,3.29
		c2.333,2.192,3.688,4.899,3.688,8.104"/>
</g>
<path fill="#2E2D2E" d="M469.379,486.698l-25.41,145.848c-0.592,3.207-2.27,5.914-5.033,8.1c-2.773,2.188-5.77,3.285-8.988,3.285
	h-25.395c-3.496,0-6.197-1.098-8.105-3.285c-1.896-2.186-2.558-4.893-1.963-8.1l25.395-145.848c1.463-8.166,0-15.039-4.376-20.594
	c-4.388-5.537-10.062-8.313-17.082-8.313H364.26c-7.014,0-13.727,2.775-20.143,8.313c-6.428,5.555-10.375,12.428-11.823,20.594
	l-25.837,145.848c-0.598,3.793-1.98,6.342-4.164,7.658c-2.201,1.313-4.896,2.563-8.105,3.727h-27.156
	c-3.212,0-5.848-1.098-7.881-3.285c-2.053-2.186-2.77-4.893-2.181-8.1l25.825-145.848c1.463-8.166-0.072-15.039-4.601-20.594
	c-4.525-5.537-10.146-8.313-16.853-8.313h-34.166c-7.002,0-13.724,2.775-20.148,8.313c-6.422,5.555-10.37,12.428-11.826,20.594
	l-25.838,145.848c-0.589,3.207-2.264,5.914-5.043,8.1c-2.77,2.188-5.761,3.285-8.973,3.285H129.95c-3.216,0-5.845-1.098-7.885-3.285
	c-2.046-2.186-2.776-4.893-2.187-8.1l25.838-145.848c1.749-10.52,5.389-20.145,10.943-28.906
	c5.537-8.764,12.332-16.277,20.357-22.559c8.047-6.275,17.014-11.162,26.943-14.653c9.928-3.536,20.146-5.273,30.653-5.273h34.164
	c9.934,0,18.987,1.525,27.156,4.595c8.175,3.071,15.18,7.537,21.024,13.369c7.885-5.832,16.483-10.298,25.84-13.369
	c9.344-3.069,18.973-4.595,28.906-4.595h34.158c10.51,0,20.078,1.737,28.693,5.273c8.605,3.491,15.825,8.378,21.673,14.653
	c5.848,6.281,9.925,13.795,12.261,22.559C470.82,466.554,471.119,476.179,469.379,486.698z"/>
<path fill="#2E2D2E" d="M687.479,486.698l-14.893,85.844c-1.756,10.505-5.417,20.064-10.951,28.69
	c-5.542,8.62-12.334,16.125-20.359,22.56c-8.04,6.428-17.014,11.383-26.943,14.883c-9.934,3.506-20.143,5.256-30.656,5.256h-34.595
	c-10.514,0-20.079-1.75-28.69-5.256c-8.615-3.5-15.766-8.455-21.452-14.883c-5.707-6.435-9.79-13.939-12.27-22.56
	c-2.479-8.626-2.851-18.186-1.098-28.69l15.329-85.844c1.753-10.52,5.402-20.076,10.963-28.685
	c5.533-8.603,12.32-16.125,20.348-22.554c8.025-6.424,17.014-11.389,26.943-14.88c9.919-3.536,20.151-5.273,30.653-5.273h34.17
	c10.511,0,20.062,1.737,28.69,5.273c8.6,3.491,15.835,8.456,21.668,14.88c5.832,6.429,9.918,13.951,12.266,22.554
	C688.942,466.622,689.226,476.179,687.479,486.698z M637.991,486.698c1.455-8.166,0-15.039-4.381-20.594
	c-4.383-5.537-10.077-8.313-17.086-8.313h-34.16c-7,0-13.721,2.775-20.154,8.313c-6.416,5.555-10.364,12.428-11.814,20.594
	l-15.33,85.844c-1.463,8.172,0.072,15.049,4.601,20.582c4.528,5.542,10.292,8.313,17.298,8.313h34.164
	c6.996,0,13.717-2.771,20.133-8.313c6.425-5.533,10.379-12.41,11.842-20.582L637.991,486.698z"/>
<path fill="#2E2D2E" d="M905.141,486.698l-25.825,145.848c-0.589,3.207-2.207,5.914-4.83,8.1c-2.63,2.188-5.546,3.285-8.755,3.285
	h-25.84c-3.21,0-5.836-1.098-7.882-3.285c-2.049-2.186-2.782-4.893-2.195-8.1l25.846-145.848c1.463-8.166-0.078-15.039-4.606-20.594
	c-4.528-5.537-10.146-8.313-16.852-8.313h-34.612c-3.5,0-6.938,0.73-10.281,2.189c-3.361,1.46-6.5,3.506-9.425,6.123
	c-2.922,2.635-5.471,5.703-7.651,9.203c-2.201,3.523-3.58,7.308-4.169,11.391l-25.841,145.848c-0.595,3.207-2.264,5.914-5.037,8.1
	c-2.775,2.188-5.766,3.285-8.97,3.285h-25.412c-3.216,0-5.829-1.098-7.888-3.285c-2.027-2.186-2.778-4.893-2.178-8.1l25.838-145.848
	c1.75-10.52,5.404-20.145,10.943-28.906c5.546-8.764,12.333-16.277,20.373-22.559c8.025-6.275,17.001-11.162,26.929-14.653
	c9.927-3.536,20.153-5.273,30.667-5.273h34.149c10.52,0,20.079,1.737,28.688,5.273c8.603,3.491,15.838,8.378,21.671,14.653
	c5.851,6.281,9.934,13.795,12.278,22.559C906.598,466.554,906.908,476.179,905.141,486.698z"/>
<path fill="#2E2D2E" d="M1009.374,426.69l-36.339,205.855c-0.595,3.207-2.276,5.914-5.037,8.1c-2.784,2.188-5.781,3.285-8.988,3.285
	h-25.84c-3.212,0-5.842-1.098-7.878-3.285c-2.053-2.186-2.782-4.893-2.178-8.1l36.339-205.855c0.589-3.188,2.264-5.9,5.03-8.108
	c2.776-2.165,5.762-3.275,8.985-3.275h25.841c3.209,0,5.82,1.11,7.884,3.275C1009.233,420.79,1009.957,423.503,1009.374,426.69z
	 M1033.913,335.167l-3.521,20.581c-0.571,3.23-2.249,5.917-5.031,8.106c-2.784,2.189-5.758,3.27-8.97,3.27h-42.923
	c-3.224,0-5.778-1.08-7.669-3.27c-1.902-2.189-2.558-4.876-1.968-8.106l3.512-20.581c0.574-3.219,2.252-5.917,5.021-8.1
	c2.775-2.189,5.764-3.306,8.985-3.306h42.477c3.212,0,5.848,1.116,7.869,3.306C1033.758,329.25,1034.484,331.948,1033.913,335.167z"
	/>
<path fill="#2E2D2E" d="M1162.233,427.563l-3.951,20.158c-0.586,3.209-2.175,5.91-4.815,8.108c-2.623,2.184-5.552,3.278-8.758,3.278
	h-45.549l-19.696,112.563c-1.475,8.177,0,15.104,4.37,20.791c4.37,5.707,10.065,8.54,17.076,8.54h18.393
	c3.511,0,6.206,1.088,8.114,3.295c1.899,2.182,2.549,4.891,1.969,8.092l-3.063,18.84c-0.592,3.497-2.276,6.195-5.04,8.109
	c-2.8,1.899-5.623,2.997-8.539,3.284l-18.844,1.308c-10.798,0.876-20.582-0.5-29.325-4.167c-8.772-3.644-15.996-8.764-21.691-15.308
	c-5.694-6.6-9.712-14.4-12.039-23.453c-2.345-9.039-2.629-18.83-0.876-29.331l35.48-202.347c0.571-3.79,2.614-6.649,6.119-8.534
	c3.512-1.908,7.448-3.356,11.821-4.379c4.388-1.028,8.548-1.597,12.493-1.771c3.939-0.135,6.775-0.365,8.531-0.643
	c4.666-0.596,7.878,0.508,9.646,3.274c1.749,2.788,2.336,5.479,1.749,8.118l-8.758,50.789h45.111c3.204,0,5.836,1.105,7.885,3.293
	C1162.063,421.665,1162.808,424.376,1162.233,427.563z"/>
<path fill="#2E2D2E" d="M1349.685,486.698l-14.887,85.844c-1.749,10.505-5.41,20.064-10.962,28.69
	c-5.54,8.62-12.332,16.125-20.354,22.56c-8.034,6.428-17.02,11.383-26.943,14.883c-9.922,3.506-20.146,5.256-30.656,5.256h-34.598
	c-10.511,0-20.073-1.75-28.688-5.256c-8.611-3.5-15.763-8.455-21.461-14.883c-5.683-6.435-9.787-13.939-12.267-22.56
	c-2.482-8.626-2.842-18.186-1.104-28.69l15.332-85.844c1.756-10.52,5.408-20.076,10.966-28.685
	c5.542-8.603,12.326-16.125,20.357-22.554c8.03-6.424,17.011-11.389,26.935-14.88c9.934-3.536,20.147-5.273,30.652-5.273h34.167
	c10.505,0,20.073,1.737,28.682,5.273c8.617,3.491,15.847,8.456,21.686,14.88c5.842,6.429,9.925,13.951,12.267,22.554
	C1351.139,466.622,1351.44,476.179,1349.685,486.698z M1300.194,486.698c1.441-8.166,0-15.039-4.388-20.594
	c-4.373-5.537-10.074-8.313-17.076-8.313h-34.152c-7.015,0-13.735,2.775-20.154,8.313c-6.422,5.555-10.37,12.428-11.823,20.594
	l-15.329,85.844c-1.472,8.172,0.071,15.049,4.594,20.582c4.531,5.542,10.296,8.313,17.295,8.313h34.161
	c7.011,0,13.72-2.771,20.153-8.313c6.416-5.533,10.358-12.41,11.824-20.582L1300.194,486.698z"/>
<path fill="#2E2D2E" d="M1531.872,428.89l-3.057,17.506c-0.607,3.236-2.343,6.004-5.271,8.33c-2.907,2.343-6.129,3.504-9.635,3.504
	c-8.752-0.281-16.493-0.516-23.208-0.652c-6.721-0.135-12.4-0.219-17.091-0.219h-13.562c-3.509,0-7.017,0.805-10.511,2.408
	c-3.509,1.609-6.724,3.721-9.646,6.338c-2.916,2.635-5.464,5.703-7.651,9.203c-2.195,3.523-3.589,7.308-4.16,11.391l-25.852,145.405
	c-0.584,2.623-2.121,5.255-4.592,7.883c-2.479,2.637-5.629,3.944-9.422,3.944h-25.395c-3.209,0-5.848-1.098-7.887-3.285
	c-2.049-2.186-2.773-4.893-2.193-8.1l25.841-145.848c1.749-10.52,5.401-20.202,10.947-29.121
	c5.545-8.896,12.257-16.577,20.145-22.999c7.888-6.415,16.786-11.387,26.734-14.89c9.906-3.508,20.271-5.111,31.077-4.815
	c1.463,0,6.719,0.141,15.781,0.434c9.042,0.296,22.179,0.874,39.401,1.737c3.805,0.309,6.428,1.774,7.882,4.395
	C1532.013,424.071,1532.455,426.554,1531.872,428.89z"/>
<path fill="#2F65AE" d="M1074.952,1018.408l-4.167-145.372c11.891-0.341,23.684-1.053,35.052-2.116l13.544,144.801
	C1104.908,1017.074,1089.96,1017.979,1074.952,1018.408z M1030.754,1018.356c-15.035-0.467-30.006-1.412-44.497-2.811l13.967-144.76
	c11.361,1.097,23.152,1.839,35.044,2.209L1030.754,1018.356z M1163.949,1009.958l-23.877-143.459
	c11.316-1.884,22.523-4.195,33.309-6.873l35.033,141.149C1193.957,1004.364,1178.997,1007.453,1163.949,1009.958z M941.522,1009.607
	c-15.108-2.575-30.126-5.746-44.638-9.425l35.742-140.972c10.793,2.736,22.008,5.103,33.333,7.032L941.522,1009.607z
	 M1252.361,987.907l-46.73-137.72c10.536-3.576,20.989-7.638,31.067-12.075l58.597,133.105
	C1281.347,977.357,1266.902,982.973,1252.361,987.907z M852.752,986.975c-14.595-5.063-29.081-10.821-43.056-17.116l59.728-132.602
	c10.044,4.524,20.472,8.669,30.993,12.319L852.752,986.975z M1336.651,950.782l-70.117-127.414c9.65-5.31,19.266-11.16,28.58-17.387
	l80.829,120.9C1363.168,935.423,1349.948,943.464,1336.651,950.782z M768.293,948.909c-13.3-7.499-26.509-15.738-39.261-24.489
	l82.289-119.912c9.248,6.347,18.805,12.309,28.403,17.722L768.293,948.909z M1412.814,899.98l-90.358-113.955
	c8.763-6.948,17.561-14.479,26.15-22.387l98.492,107.004C1435.895,880.955,1424.36,890.826,1412.814,899.98z M692.342,896.928
	c-11.452-9.332-22.885-19.394-33.982-29.903l100.004-105.592c8.488,8.039,17.186,15.695,25.851,22.757L692.342,896.928z
	 M1478.83,839.437l-105.204-100.412c7.952-8.332,16.037-17.303,24.03-26.663l110.592,94.446
	C1498.521,818.197,1488.624,829.175,1478.83,839.437z M627.029,835.309c-9.62-10.379-19.34-21.48-28.89-32.995l111.944-92.838
	c7.852,9.467,15.794,18.541,23.606,26.97L627.029,835.309z M1535.497,773.343l-114.769-89.323
	c7.248-9.313,14.758-19.346,22.319-29.819l117.913,85.129C1552.381,751.213,1543.814,762.657,1535.497,773.343z M1584.978,705.041
	l-120.187-81.887c6.752-9.91,13.744-20.397,21.377-32.063l121.693,79.63C1599.729,683.151,1592.244,694.377,1584.978,705.041z
	 M1629.929,636.554l-122.537-78.326c6.145-9.613,12.27-19.256,18.397-28.903l2.953-4.648l122.754,77.986l-2.947,4.641
	C1642.347,617.066,1636.148,626.824,1629.929,636.554z M1672.775,569.303l-122.367-78.592c8.17-12.721,15.446-23.909,22.245-34.206
	l121.363,80.134C1687.559,546.419,1680.611,557.104,1672.775,569.303z M1715.451,504.843l-119.69-82.611
	c8.376-12.136,16.313-23.305,24.266-34.147l117.269,86.016C1730.174,483.808,1723.028,493.864,1715.451,504.843z M1759.75,444.6
	l-113.993-90.311c9.146-11.546,18.4-22.707,27.505-33.175l109.733,95.44C1775.344,425.354,1767.522,434.788,1759.75,444.6z
	 M1807.188,390.187L1702.84,288.885c10.471-10.785,21.203-21.175,31.899-30.882l97.729,107.7
	C1824.035,373.356,1815.529,381.594,1807.188,390.187z M1858.945,343.315l-89.811-114.387c11.978-9.404,24.349-18.372,36.769-26.652
	l80.675,121.004C1877.274,329.483,1867.978,336.225,1858.945,343.315z M1915.445,305.683l-70.525-127.188
	c13.313-7.382,27.09-14.286,40.947-20.521l59.674,132.625C1935.359,295.18,1925.233,300.255,1915.445,305.683z M1976.844,278.046
	l-48.541-137.092c14.128-5.003,28.744-9.53,43.443-13.457l37.537,140.504C1998.279,270.94,1987.365,274.32,1976.844,278.046z
	 M2042.745,260.4l-26.991-142.905c14.386-2.718,29.253-4.995,44.189-6.77l17.158,144.416
	C2065.445,256.526,2053.886,258.296,2042.745,260.4z M2112.187,252.099l-8.145-145.203c14.288-0.802,29.028-1.208,43.81-1.208
	v145.432C2135.774,251.119,2123.775,251.449,2112.187,252.099z"/>
<path fill="#BCBBBB" d="M2148.596,940.357c-14.781,0-29.521-0.406-43.81-1.208l8.145-145.203
	c11.589,0.649,23.588,0.979,35.665,0.979V940.357z"/>
<path fill="#BCBBBB" d="M2060.688,935.319c-14.937-1.774-29.804-4.052-44.189-6.77l26.991-142.905
	c11.141,2.104,22.7,3.874,34.356,5.259L2060.688,935.319z"/>
<path fill="#BCBBBB" d="M1972.49,918.548c-14.699-3.927-29.315-8.454-43.443-13.457l48.541-137.092
	c10.521,3.726,21.436,7.105,32.439,10.045L1972.49,918.548z"/>
<path fill="#BCBBBB" d="M1886.611,888.071c-13.857-6.235-27.634-13.14-40.947-20.521l70.525-127.188
	c9.788,5.428,19.914,10.503,30.096,15.084L1886.611,888.071z"/>
<path fill="#BCBBBB" d="M1806.647,843.769c-12.42-8.28-24.791-17.248-36.769-26.652l89.811-114.387
	c9.032,7.091,18.329,13.832,27.633,20.035L1806.647,843.769z"/>
<path fill="#BCBBBB" d="M1735.483,788.042c-10.696-9.707-21.429-20.097-31.899-30.882l104.348-101.302
	c8.342,8.593,16.848,16.83,25.281,24.483L1735.483,788.042z"/>
<path fill="#BCBBBB" d="M710.244,335.264l-111.59-93.263c9.593-11.478,19.356-22.542,29.015-32.884l106.284,99.268
	C726.108,316.783,718.131,325.827,710.244,335.264z"/>
<path fill="#BCBBBB" d="M1397.822,334.992c-7.957-9.392-16.008-18.394-23.93-26.756l105.586-100.01
	c9.754,10.299,19.611,21.313,29.294,32.738L1397.822,334.992z"/>
<path fill="#BCBBBB" d="M758.721,283.491L659.119,177.52c11.138-10.467,22.609-20.484,34.096-29.772l91.444,113.087
	C775.966,267.861,767.24,275.484,758.721,283.491z"/>
<path fill="#BCBBBB" d="M1348.969,283.527c-8.561-7.939-17.33-15.505-26.066-22.486l90.791-113.611
	c11.512,9.199,23.008,19.113,34.172,29.469L1348.969,283.527z"/>
<path fill="#BCBBBB" d="M811.841,240.619l-81.832-120.226c12.785-8.702,26.025-16.891,39.353-24.339l70.95,126.949
	C830.693,228.381,821.114,234.306,811.841,240.619z"/>
<path fill="#BCBBBB" d="M1295.637,240.98c-9.291-6.26-18.883-12.146-28.514-17.494l70.601-127.146
	c13.269,7.368,26.458,15.461,39.2,24.049L1295.637,240.98z"/>
<path fill="#BCBBBB" d="M870.068,208.09L810.845,75.262c13.999-6.241,28.506-11.945,43.121-16.951l47.143,137.576
	C890.574,199.498,880.131,203.604,870.068,208.09z"/>
<path fill="#BCBBBB" d="M1237.344,208.629c-10.062-4.477-20.5-8.576-31.021-12.192l47.254-137.54
	c14.521,4.989,28.944,10.658,42.869,16.85L1237.344,208.629z"/>
<path fill="#BCBBBB" d="M933.354,186.375L898.147,45.27c14.526-3.625,29.556-6.736,44.674-9.256l23.891,143.457
	C955.38,181.357,944.157,183.68,933.354,186.375z"/>
<path fill="#BCBBBB" d="M1174.108,186.875c-10.775-2.719-21.974-5.071-33.282-6.998l24.422-143.369
	c15.037,2.563,29.986,5.708,44.43,9.354L1174.108,186.875z"/>
<path fill="#BCBBBB" d="M1000.996,175.057L987.579,30.246c14.496-1.344,29.47-2.232,44.507-2.642l3.963,145.379
	C1024.155,173.307,1012.361,174.004,1000.996,175.057z"/>
<path fill="#BCBBBB" d="M1106.607,175.325c-11.364-1.106-23.153-1.862-35.044-2.249l4.72-145.355
	c15.007,0.487,29.951,1.447,44.418,2.855L1106.607,175.325z"/>
</svg>
